<?xml version="1.0" encoding="UTF-8" standalone="no"?>
<svg
   viewBox="0 0 512 512"
   version="1.1"
   id="svg4"
   sodipodi:docname="power-off-solid.svg"
   inkscape:version="1.2.1 (9c6d41e410, 2022-07-14, custom)"
   xmlns:inkscape="http://www.inkscape.org/namespaces/inkscape"
   xmlns:sodipodi="http://sodipodi.sourceforge.net/DTD/sodipodi-0.dtd"
   xmlns="http://www.w3.org/2000/svg"
   xmlns:svg="http://www.w3.org/2000/svg">
  <defs
     id="defs8" />
  <sodipodi:namedview
     id="namedview6"
     pagecolor="#ffffff"
     bordercolor="#000000"
     borderopacity="0.25"
     inkscape:showpageshadow="2"
     inkscape:pageopacity="0.0"
     inkscape:pagecheckerboard="0"
     inkscape:deskcolor="#d1d1d1"
     showgrid="false"
     inkscape:zoom="0.4609375"
     inkscape:cx="-206.10169"
     inkscape:cy="269.01695"
     inkscape:window-width="2532"
     inkscape:window-height="858"
     inkscape:window-x="6"
     inkscape:window-y="42"
     inkscape:window-maximized="1"
     inkscape:current-layer="svg4" />
  <!--! Font Awesome Pro 6.2.0 by @fontawesome - https://fontawesome.com License - https://fontawesome.com/license (Commercial License) Copyright 2022 Fonticons, Inc. -->
  <path
     d="M288 32c0-17.7-14.3-32-32-32s-32 14.3-32 32V256c0 17.7 14.3 32 32 32s32-14.3 32-32V32zM143.5 120.6c13.6-11.3 15.4-31.5 4.1-45.1s-31.5-15.4-45.1-4.1C49.7 115.4 16 181.8 16 256c0 132.5 107.5 240 240 240s240-107.5 240-240c0-74.2-33.8-140.6-86.6-184.6c-13.6-11.3-33.8-9.4-45.1 4.1s-9.4 33.8 4.1 45.1c38.9 32.3 63.5 81 63.5 135.4c0 97.2-78.8 176-176 176s-176-78.8-176-176c0-54.4 24.7-103.1 63.5-135.4z"
     id="path2"
     style="fill:#eff1f8;fill-opacity:1" />
</svg>
