<?xml version="1.0" encoding="UTF-8" standalone="no"?>
<svg
   viewBox="0 0 448 512"
   version="1.1"
   id="svg4"
   sodipodi:docname="snooze.svg"
   xml:space="preserve"
   inkscape:version="1.2.1 (9c6d41e410, 2022-07-14, custom)"
   xmlns:inkscape="http://www.inkscape.org/namespaces/inkscape"
   xmlns:sodipodi="http://sodipodi.sourceforge.net/DTD/sodipodi-0.dtd"
   xmlns="http://www.w3.org/2000/svg"
   xmlns:svg="http://www.w3.org/2000/svg"><defs
     id="defs8" /><sodipodi:namedview
     id="namedview6"
     pagecolor="#ffffff"
     bordercolor="#000000"
     borderopacity="0.25"
     inkscape:showpageshadow="2"
     inkscape:pageopacity="0.0"
     inkscape:pagecheckerboard="0"
     inkscape:deskcolor="#d1d1d1"
     showgrid="false"
     inkscape:zoom="0.4609375"
     inkscape:cx="221.28814"
     inkscape:cy="256"
     inkscape:window-width="2532"
     inkscape:window-height="858"
     inkscape:window-x="6"
     inkscape:window-y="42"
     inkscape:window-maximized="1"
     inkscape:current-layer="svg4" /><!--! Font Awesome Pro 6.0.0-alpha3 by @fontawesome - https://fontawesome.com License - https://fontawesome.com/license (Commercial License) --><path
     d="M199.1 224H39.1C26.75 224 15.1 234.8 15.1 248S26.75 272 39.1 272h112.6l-147.1 201.8c-5.344 7.281-6.156 16.97-2.063 25.03C6.684 506.9 14.96 512 23.1 512h160c13.25 0 24-10.75 24-24S197.2 464 183.1 464H71.37l147.1-201.8c5.344-7.281 6.156-16.97 2.063-25.03C217.3 229.1 209 224 199.1 224zM445.5 237.3C441.4 229.1 433.1 224 423.1 224h-96c-13.25 0-23.1 10.75-23.1 24s10.75 24 23.1 24h48l-67.19 89.59c-5.469 7.281-6.344 17-2.281 25.12C310.6 394.9 318.9 400 327.1 400h88c13.25 0 24-10.75 24-24S429.2 352 415.1 352h-40l67.19-89.59C448.7 255.1 449.5 245.4 445.5 237.3zM311.1 152c0-13.25-10.75-24-23.1-24h-40l67.19-89.59c5.469-7.281 6.344-17 2.281-25.12C313.4 5.125 305.1 0 295.1 0H199.1C186.7 0 175.1 10.75 175.1 24S186.7 48 199.1 48h48L180.8 137.6c-5.469 7.281-6.344 17-2.281 25.12C182.6 170.9 190.9 176 199.1 176h88C301.2 176 311.1 165.3 311.1 152z"
     id="path2"
     style="fill:#eff1f8;fill-opacity:1" /></svg>
