<?xml version="1.0" encoding="UTF-8" standalone="no"?>
<svg
   id="mdi-calendar-clock"
   viewBox="0 0 24 24"
   version="1.1"
   sodipodi:docname="calendar-clock.svg"
   inkscape:version="1.2.1 (9c6d41e410, 2022-07-14, custom)"
   xmlns:inkscape="http://www.inkscape.org/namespaces/inkscape"
   xmlns:sodipodi="http://sodipodi.sourceforge.net/DTD/sodipodi-0.dtd"
   xmlns="http://www.w3.org/2000/svg"
   xmlns:svg="http://www.w3.org/2000/svg">
  <defs
     id="defs1338" />
  <sodipodi:namedview
     id="namedview1336"
     pagecolor="#ffffff"
     bordercolor="#000000"
     borderopacity="0.25"
     inkscape:showpageshadow="2"
     inkscape:pageopacity="0.0"
     inkscape:pagecheckerboard="0"
     inkscape:deskcolor="#d1d1d1"
     showgrid="false"
     inkscape:zoom="9.8333333"
     inkscape:cx="11.898305"
     inkscape:cy="12"
     inkscape:window-width="2532"
     inkscape:window-height="858"
     inkscape:window-x="6"
     inkscape:window-y="42"
     inkscape:window-maximized="1"
     inkscape:current-layer="mdi-calendar-clock" />
  <path
     d="m 15.129444,13.064722 h 1.597083 v 3.002516 l 2.597922,1.501258 -0.798542,1.384139 -3.396463,-1.959089 v -3.928824 m 4.258888,-5.32361 H 4.482224 V 19.453054 H 9.4544757 C 8.9966453,18.484157 8.741112,17.398141 8.741112,16.258888 a 7.453054,7.453054 0 0 1 7.453054,-7.453054 c 1.139253,0 2.225269,0.2555333 3.194166,0.7133637 V 7.741112 M 4.482224,21.582498 c -1.1818414,0 -2.129444,-0.95825 -2.129444,-2.129444 V 4.546946 c 0,-1.1818414 0.9476026,-2.129444 2.129444,-2.129444 H 5.546946 V 0.28805801 H 7.67639 V 2.417502 h 8.517776 V 0.28805801 H 18.32361 V 2.417502 h 1.064722 a 2.129444,2.129444 0 0 1 2.129444,2.129444 v 6.494804 c 1.320255,1.34155 2.129444,3.183519 2.129444,5.217138 a 7.453054,7.453054 0 0 1 -7.453054,7.453054 c -2.033619,0 -3.875588,-0.809189 -5.217138,-2.129444 H 4.482224 M 16.194166,11.094986 a 5.1639017,5.1639017 0 0 0 -5.163902,5.163902 c 0,2.853455 2.310447,5.163902 5.163902,5.163902 a 5.1639017,5.1639017 0 0 0 5.163902,-5.163902 c 0,-2.853455 -2.310447,-5.163902 -5.163902,-5.163902 z"
     id="path1333"
     style="fill:#8a94b1;fill-opacity:1;stroke-width:1.06472" />
</svg>
