<?xml version="1.0" encoding="UTF-8" standalone="no"?>
<svg
   viewBox="0 0 512 512"
   version="1.1"
   id="svg4"
   sodipodi:docname="clock.svg"
   inkscape:version="1.2.1 (9c6d41e410, 2022-07-14, custom)"
   xmlns:inkscape="http://www.inkscape.org/namespaces/inkscape"
   xmlns:sodipodi="http://sodipodi.sourceforge.net/DTD/sodipodi-0.dtd"
   xmlns="http://www.w3.org/2000/svg"
   xmlns:svg="http://www.w3.org/2000/svg">
  <defs
     id="defs8" />
  <sodipodi:namedview
     id="namedview6"
     pagecolor="#ffffff"
     bordercolor="#000000"
     borderopacity="0.25"
     inkscape:showpageshadow="2"
     inkscape:pageopacity="0.0"
     inkscape:pagecheckerboard="0"
     inkscape:deskcolor="#d1d1d1"
     showgrid="false"
     inkscape:zoom="0.4609375"
     inkscape:cx="253.83051"
     inkscape:cy="256"
     inkscape:window-width="2532"
     inkscape:window-height="858"
     inkscape:window-x="6"
     inkscape:window-y="42"
     inkscape:window-maximized="1"
     inkscape:current-layer="svg4" />
  <!--! Font Awesome Pro 6.0.0-alpha3 by @fontawesome - https://fontawesome.com License - https://fontawesome.com/license (Commercial License) -->
  <path
     d="M280 260V152C280 138.8 269.3 128 256 128S232 138.8 232 152V272c0 7.562 3.562 14.66 9.594 19.19l64 48C309.9 342.4 314.1 344 319.1 344c7.297 0 14.5-3.312 19.22-9.594c7.953-10.62 5.797-25.66-4.797-33.59L280 260zM255.1 0c-141.4 0-256 114.6-256 256s114.6 256 256 256s255.1-114.6 255.1-256S397.4 0 255.1 0zM256 464c-114.7 0-208-93.31-208-208S141.3 48 256 48s208 93.31 208 208S370.7 464 256 464z"
     id="path2"
     style="fill:#8a94b1;fill-opacity:1" />
</svg>
