<?xml version="1.0" encoding="UTF-8" standalone="no"?>
<svg
   viewBox="0 0 512 512"
   version="1.1"
   id="svg4"
   sodipodi:docname="exit.svg"
   inkscape:version="1.2.1 (9c6d41e410, 2022-07-14, custom)"
   xmlns:inkscape="http://www.inkscape.org/namespaces/inkscape"
   xmlns:sodipodi="http://sodipodi.sourceforge.net/DTD/sodipodi-0.dtd"
   xmlns="http://www.w3.org/2000/svg"
   xmlns:svg="http://www.w3.org/2000/svg">
  <defs
     id="defs8" />
  <sodipodi:namedview
     id="namedview6"
     pagecolor="#ffffff"
     bordercolor="#000000"
     borderopacity="0.25"
     inkscape:showpageshadow="2"
     inkscape:pageopacity="0.0"
     inkscape:pagecheckerboard="0"
     inkscape:deskcolor="#d1d1d1"
     showgrid="false"
     inkscape:zoom="0.4609375"
     inkscape:cx="256"
     inkscape:cy="256"
     inkscape:window-width="2532"
     inkscape:window-height="858"
     inkscape:window-x="6"
     inkscape:window-y="42"
     inkscape:window-maximized="1"
     inkscape:current-layer="svg4" />
  <!--! Font Awesome Pro 6.2.0 by @fontawesome - https://fontawesome.com License - https://fontawesome.com/license (Commercial License) Copyright 2022 Fonticons, Inc. -->
  <path
     d="M160 96c17.7 0 32-14.3 32-32s-14.3-32-32-32H96C43 32 0 75 0 128V384c0 53 43 96 96 96h64c17.7 0 32-14.3 32-32s-14.3-32-32-32H96c-17.7 0-32-14.3-32-32l0-256c0-17.7 14.3-32 32-32h64zM504.5 273.4c4.8-4.5 7.5-10.8 7.5-17.4s-2.7-12.9-7.5-17.4l-144-136c-7-6.6-17.2-8.4-26-4.6s-14.5 12.5-14.5 22v72H192c-17.7 0-32 14.3-32 32l0 64c0 17.7 14.3 32 32 32H320v72c0 9.6 5.7 18.2 14.5 22s19 2 26-4.6l144-136z"
     id="path2"
     style="fill:#8a94b1;fill-opacity:1" />
</svg>
