<?xml version="1.0" encoding="UTF-8" standalone="no"?>
<svg
   viewBox="0 0 512 512"
   version="1.1"
   id="svg4"
   sodipodi:docname="power-off.svg"
   inkscape:version="1.2.1 (9c6d41e410, 2022-07-14, custom)"
   xmlns:inkscape="http://www.inkscape.org/namespaces/inkscape"
   xmlns:sodipodi="http://sodipodi.sourceforge.net/DTD/sodipodi-0.dtd"
   xmlns="http://www.w3.org/2000/svg"
   xmlns:svg="http://www.w3.org/2000/svg">
  <defs
     id="defs8" />
  <sodipodi:namedview
     id="namedview6"
     pagecolor="#ffffff"
     bordercolor="#000000"
     borderopacity="0.25"
     inkscape:showpageshadow="2"
     inkscape:pageopacity="0.0"
     inkscape:pagecheckerboard="0"
     inkscape:deskcolor="#d1d1d1"
     showgrid="false"
     inkscape:zoom="0.4609375"
     inkscape:cx="-206.10169"
     inkscape:cy="269.01695"
     inkscape:window-width="2532"
     inkscape:window-height="858"
     inkscape:window-x="6"
     inkscape:window-y="42"
     inkscape:window-maximized="1"
     inkscape:current-layer="svg4" />
  <!--! Font Awesome Pro 6.2.0 by @fontawesome - https://fontawesome.com License - https://fontawesome.com/license (Commercial License) Copyright 2022 Fonticons, Inc. -->
  <path
     d="M 288,40 C 288,22.3 273.7,8 256,8 238.3,8 224,22.3 224,40 v 224 c 0,17.7 14.3,32 32,32 17.7,0 32,-14.3 32,-32 z M 143.5,128.6 C 157.1,117.3 158.9,97.1 147.6,83.5 136.3,69.9 116.1,68.1 102.5,79.4 49.7,123.4 16,189.8 16,264 16,396.5 123.5,504 256,504 388.5,504 496,396.5 496,264 496,189.8 462.2,123.4 409.4,79.4 395.8,68.1 375.6,70 364.3,83.5 c -11.3,13.5 -9.4,33.8 4.1,45.1 38.9,32.3 63.5,81 63.5,135.4 0,97.2 -78.8,176 -176,176 -97.2,0 -176,-78.8 -176,-176 0,-54.4 24.7,-103.1 63.5,-135.4 z"
     id="path2"
     style="fill:#8a94b1;fill-opacity:1" />
</svg>
