<?xml version="1.0" encoding="UTF-8" standalone="no"?>
<svg
   viewBox="0 0 448 512"
   version="1.1"
   id="svg135"
   sodipodi:docname="square-check-solid.svg"
   inkscape:version="1.2.1 (9c6d41e410, 2022-07-14, custom)"
   xmlns:inkscape="http://www.inkscape.org/namespaces/inkscape"
   xmlns:sodipodi="http://sodipodi.sourceforge.net/DTD/sodipodi-0.dtd"
   xmlns="http://www.w3.org/2000/svg"
   xmlns:svg="http://www.w3.org/2000/svg">
  <defs
     id="defs139" />
  <sodipodi:namedview
     id="namedview137"
     pagecolor="#ffffff"
     bordercolor="#000000"
     borderopacity="0.25"
     inkscape:showpageshadow="2"
     inkscape:pageopacity="0.0"
     inkscape:pagecheckerboard="0"
     inkscape:deskcolor="#d1d1d1"
     showgrid="false"
     inkscape:zoom="0.4609375"
     inkscape:cx="219.11864"
     inkscape:cy="256"
     inkscape:window-width="2532"
     inkscape:window-height="858"
     inkscape:window-x="6"
     inkscape:window-y="42"
     inkscape:window-maximized="1"
     inkscape:current-layer="svg135" />
  <!--! Font Awesome Pro 6.0.0-alpha3 by @fontawesome - https://fontawesome.com License - https://fontawesome.com/license (Commercial License) -->
  <path
     d="M384 32H64C28.65 32 0 60.65 0 96v320c0 35.35 28.65 64 64 64h320c35.35 0 64-28.65 64-64V96C448 60.65 419.3 32 384 32zM339.8 211.8l-128 128C206.3 345.3 199.2 348 192 348s-14.34-2.719-19.81-8.188l-64-64c-10.91-10.94-10.91-28.69 0-39.63c10.94-10.94 28.69-10.94 39.63 0L192 280.4l108.2-108.2c10.94-10.94 28.69-10.94 39.63 0C350.7 183.1 350.7 200.9 339.8 211.8z"
     id="path133"
     style="fill:#8a94b1;fill-opacity:1" />
</svg>
