<?xml version="1.0" encoding="UTF-8" standalone="no"?>
<svg
   viewBox="0 0 512 512"
   version="1.1"
   id="svg4"
   sodipodi:docname="exit.svg"
   inkscape:version="1.2.1 (9c6d41e410, 2022-07-14, custom)"
   xmlns:inkscape="http://www.inkscape.org/namespaces/inkscape"
   xmlns:sodipodi="http://sodipodi.sourceforge.net/DTD/sodipodi-0.dtd"
   xmlns="http://www.w3.org/2000/svg"
   xmlns:svg="http://www.w3.org/2000/svg">
  <defs
     id="defs8" />
  <sodipodi:namedview
     id="namedview6"
     pagecolor="#ffffff"
     bordercolor="#000000"
     borderopacity="0.25"
     inkscape:showpageshadow="2"
     inkscape:pageopacity="0.0"
     inkscape:pagecheckerboard="0"
     inkscape:deskcolor="#d1d1d1"
     showgrid="false"
     inkscape:zoom="0.4609375"
     inkscape:cx="258.16949"
     inkscape:cy="256"
     inkscape:window-width="2532"
     inkscape:window-height="858"
     inkscape:window-x="6"
     inkscape:window-y="42"
     inkscape:window-maximized="1"
     inkscape:current-layer="svg4" />
  <!--! Font Awesome Pro 6.2.0 by @fontawesome - https://fontawesome.com License - https://fontawesome.com/license (Commercial License) Copyright 2022 Fonticons, Inc. -->
  <path
     d="m 193.6,152 c 11.505,0 20.8,-9.295 20.8,-20.8 0,-11.505 -9.295,-20.8 -20.8,-20.8 H 152 c -34.45,0 -62.4,27.95 -62.4,62.4 v 166.4 c 0,34.45 27.95,62.4 62.4,62.4 h 41.6 c 11.505,0 20.8,-9.295 20.8,-20.8 0,-11.505 -9.295,-20.8 -20.8,-20.8 H 152 c -11.505,0 -20.8,-9.295 -20.8,-20.8 V 172.8 c 0,-11.505 9.295,-20.8 20.8,-20.8 z m 223.925,115.31 c 3.12,-2.925 4.875,-7.02 4.875,-11.31 0,-4.29 -1.755,-8.385 -4.875,-11.31 l -93.6,-88.4 c -4.55,-4.29 -11.18,-5.46 -16.9,-2.99 -5.72,2.47 -9.425,8.125 -9.425,14.3 v 46.8 h -83.2 c -11.505,0 -20.8,9.295 -20.8,20.8 v 41.6 c 0,11.505 9.295,20.8 20.8,20.8 h 83.2 v 46.8 c 0,6.24 3.705,11.83 9.425,14.3 5.72,2.47 12.35,1.3 16.9,-2.99 z"
     id="path2"
     style="fill:#eff1f8;fill-opacity:1;stroke-width:0.65" />
</svg>
