<?xml version="1.0" encoding="UTF-8" standalone="no"?>
<svg
   viewBox="0 0 512 512"
   version="1.1"
   id="svg4"
   sodipodi:docname="file-pen.svg"
   width="512"
   height="512"
   inkscape:version="1.2.1 (9c6d41e410, 2022-07-14, custom)"
   xmlns:inkscape="http://www.inkscape.org/namespaces/inkscape"
   xmlns:sodipodi="http://sodipodi.sourceforge.net/DTD/sodipodi-0.dtd"
   xmlns="http://www.w3.org/2000/svg"
   xmlns:svg="http://www.w3.org/2000/svg">
  <defs
     id="defs8" />
  <sodipodi:namedview
     id="namedview6"
     pagecolor="#ffffff"
     bordercolor="#000000"
     borderopacity="0.25"
     inkscape:showpageshadow="2"
     inkscape:pageopacity="0.0"
     inkscape:pagecheckerboard="0"
     inkscape:deskcolor="#d1d1d1"
     showgrid="false"
     inkscape:zoom="0.4609375"
     inkscape:cx="188.74576"
     inkscape:cy="256"
     inkscape:window-width="2532"
     inkscape:window-height="858"
     inkscape:window-x="6"
     inkscape:window-y="42"
     inkscape:window-maximized="1"
     inkscape:current-layer="svg4" />
  <!--! Font Awesome Pro 6.0.0-alpha3 by @fontawesome - https://fontawesome.com License - https://fontawesome.com/license (Commercial License) -->
  <path
     d="M 276.8,172.8 V 89.6 H 162.4 c -17.2315,0 -31.2,13.9685 -31.2,31.2 v 270.4 c 0,17.225 13.9685,31.2 31.2,31.2 h 187.2 c 17.2315,0 31.2,-13.9685 31.2,-31.2 V 193.6 h -82.615 c -12.09,0 -21.385,-9.295 -21.385,-20.8 z m -47.385,198.185 c -1.27075,1.27205 -2.88795,2.13525 -4.6488,2.4882 l -36.0932,7.2618 c -3.1824,0.63733 -6.01835,-2.1983 -5.38265,-5.3794 l 7.2215,-36.075 c 0.35295,-1.76215 1.21875,-3.38195 2.4895,-4.6514 l 63.4465,-63.4465 36.4065,36.4065 z m 83.395,-130.455 10.6665,10.6665 c 7.111,7.1045 7.1045,18.629 -10e-4,25.74 l -15.912,15.912 -36.4065,-36.4065 15.912,-15.912 c 7.0863,-7.085 18.6563,-7.085 25.7413,0 z M 297.6,89.6 v 83.2 h 83.2 z"
     id="path2"
     style="fill:#eff1f8;fill-opacity:1;stroke-width:0.65" />
</svg>
