<?xml version="1.0" encoding="UTF-8" standalone="no"?>
<svg
   viewBox="0 0 512 512"
   version="1.1"
   id="svg4"
   sodipodi:docname="globe.svg"
   inkscape:version="1.2.1 (9c6d41e410, 2022-07-14, custom)"
   xmlns:inkscape="http://www.inkscape.org/namespaces/inkscape"
   xmlns:sodipodi="http://sodipodi.sourceforge.net/DTD/sodipodi-0.dtd"
   xmlns="http://www.w3.org/2000/svg"
   xmlns:svg="http://www.w3.org/2000/svg">
  <defs
     id="defs8" />
  <sodipodi:namedview
     id="namedview6"
     pagecolor="#ffffff"
     bordercolor="#000000"
     borderopacity="0.25"
     inkscape:showpageshadow="2"
     inkscape:pageopacity="0.0"
     inkscape:pagecheckerboard="0"
     inkscape:deskcolor="#d1d1d1"
     showgrid="false"
     inkscape:zoom="0.4609375"
     inkscape:cx="253.83051"
     inkscape:cy="256"
     inkscape:window-width="2532"
     inkscape:window-height="858"
     inkscape:window-x="6"
     inkscape:window-y="42"
     inkscape:window-maximized="1"
     inkscape:current-layer="svg4" />
  <!--! Font Awesome Pro 6.0.0-alpha3 by @fontawesome - https://fontawesome.com License - https://fontawesome.com/license (Commercial License) -->
  <path
     d="m 209.14946,100.43301 c -45.83864,13.78544 -83.09184,47.2402 -102.03667,90.56685 h 67.68816 c 6.52033,-37.84904 18.64014,-69.44181 34.34851,-90.56685 z M 191.00359,256 c 0,15.26826 0.86463,29.69694 2.45308,43.33342 H 318.58193 C 320.17037,285.69694 321.035,271.26826 321.035,256 c 0,-15.26826 -0.86463,-29.69694 -2.45307,-43.33342 H 193.44109 c -1.55729,13.6094 -2.4375,28.09901 -2.4375,43.33342 z m 124.31276,-65.00014 c -11.00263,-59.61054 -36.13602,-97.5002 -59.29231,-97.5002 -23.1563,0 -48.29646,37.88966 -59.33294,97.5002 z m 89.57831,0 c -18.94483,-43.32665 -56.19804,-76.78141 -102.03667,-90.59394 15.70836,21.15213 27.82818,52.7449 34.32819,90.59394 z M 302.85799,411.59407 c 45.83863,-13.81252 83.0783,-47.86989 102.03667,-90.59394 H 337.2065 c -6.52033,37.84904 -18.64015,69.4689 -34.34851,90.59394 z M 412.47801,212.66658 h -72.17724 c 1.52209,13.88023 2.35965,28.32922 2.35965,43.33342 0,15.00419 -0.83756,29.45319 -2.35965,43.33342 h 72.17724 C 416.29744,285.52089 418.5,271.03128 418.5,256 c 0,-15.03128 -2.23032,-29.5209 -6.02199,-43.33342 z M 196.6911,321.00013 c 11.00263,59.61054 36.13601,97.50021 59.29231,97.50021 23.1563,0 48.28969,-37.88967 59.29231,-97.50021 z M 169.33688,256 c 0,-15.0042 0.83755,-29.45319 2.35963,-43.33342 H 99.522669 C 95.703233,226.4791 93.5,240.96872 93.5,256 c 0,15.03128 2.203233,29.52089 6.022669,43.33342 H 171.70667 C 170.14938,285.45319 169.33688,271.03128 169.33688,256 Z m -62.22409,65.00013 c 18.94483,43.32666 55.58865,76.78142 102.03667,90.59394 -15.70837,-21.12504 -27.82818,-52.7449 -34.32819,-90.59394 z"
     id="path2"
     style="stroke-width:0.677085;fill:#eff1f8;fill-opacity:1" />
</svg>
