<?xml version="1.0" encoding="UTF-8" standalone="no"?>
<svg
   viewBox="0 0 512 512"
   version="1.1"
   id="svg131"
   sodipodi:docname="image.svg"
   inkscape:version="1.2.1 (9c6d41e410, 2022-07-14, custom)"
   xmlns:inkscape="http://www.inkscape.org/namespaces/inkscape"
   xmlns:sodipodi="http://sodipodi.sourceforge.net/DTD/sodipodi-0.dtd"
   xmlns="http://www.w3.org/2000/svg"
   xmlns:svg="http://www.w3.org/2000/svg">
  <defs
     id="defs135" />
  <sodipodi:namedview
     id="namedview133"
     pagecolor="#ffffff"
     bordercolor="#000000"
     borderopacity="0.25"
     inkscape:showpageshadow="2"
     inkscape:pageopacity="0.0"
     inkscape:pagecheckerboard="0"
     inkscape:deskcolor="#d1d1d1"
     showgrid="false"
     inkscape:zoom="0.4609375"
     inkscape:cx="253.83051"
     inkscape:cy="256"
     inkscape:window-width="2532"
     inkscape:window-height="858"
     inkscape:window-x="6"
     inkscape:window-y="42"
     inkscape:window-maximized="1"
     inkscape:current-layer="svg131" />
  <!--! Font Awesome Pro 6.0.0-alpha3 by @fontawesome - https://fontawesome.com License - https://fontawesome.com/license (Commercial License) -->
  <path
     d="M 380.51342,110.4 H 130.91341 c -22.399,0 -41.020911,18.6225 -41.020911,41.6 v 208 c 0,22.9775 18.622501,41.6 41.015001,41.6 h 249.6 c 22.9775,0 41.6,-18.6225 41.6,-41.6 V 152 c 0.006,-22.9775 -18.06408,-41.6 -41.59408,-41.6 z M 162.11341,152 c 17.2315,0 31.20001,13.9685 31.20001,31.2 0,17.2315 -13.39001,31.2 -31.20001,31.2 -17.81,0 -31.2,-13.9685 -31.2,-31.2 0,-17.2315 14.547,-31.2 31.2,-31.2 z m 217.75001,202.54 c -1.82,3.38 -5.33,5.46 -9.165,5.46 H 143.20491 c -3.91365,0 -7.4945,-2.19635 -9.269,-5.6875 -1.7745,-3.48855 -1.43975,-7.6765 0.8671,-10.842 l 45.5,-62.4 c 1.9604,-2.7105 5.0804,-4.2705 8.3954,-4.2705 3.315,0 6.44541,1.58665 8.40451,4.2731 l 21.09899,28.9315 60.645,-90.415 c 1.9565,-3.4346 5.2065,-5.1896 8.6515,-5.1896 3.44501,0 6.72751,1.7368 8.65151,4.63125 l 83.2,124.8 c 2.1385,3.16875 2.33349,7.26375 0.5135,10.70875 z"
     id="path129"
     style="fill:#eff1f8;fill-opacity:1;stroke-width:0.65" />
</svg>
