<?xml version="1.0" encoding="UTF-8" standalone="no"?>
<svg
   viewBox="0 0 512 512"
   version="1.1"
   id="svg4"
   sodipodi:docname="pen-to-square.svg"
   inkscape:version="1.2.1 (9c6d41e410, 2022-07-14, custom)"
   xmlns:inkscape="http://www.inkscape.org/namespaces/inkscape"
   xmlns:sodipodi="http://sodipodi.sourceforge.net/DTD/sodipodi-0.dtd"
   xmlns="http://www.w3.org/2000/svg"
   xmlns:svg="http://www.w3.org/2000/svg">
  <defs
     id="defs8" />
  <sodipodi:namedview
     id="namedview6"
     pagecolor="#ffffff"
     bordercolor="#000000"
     borderopacity="0.25"
     inkscape:showpageshadow="2"
     inkscape:pageopacity="0.0"
     inkscape:pagecheckerboard="0"
     inkscape:deskcolor="#d1d1d1"
     showgrid="false"
     inkscape:zoom="0.4609375"
     inkscape:cx="253.83051"
     inkscape:cy="256"
     inkscape:window-width="2532"
     inkscape:window-height="858"
     inkscape:window-x="6"
     inkscape:window-y="42"
     inkscape:window-maximized="1"
     inkscape:current-layer="svg4" />
  <!--! Font Awesome Pro 6.0.0-alpha3 by @fontawesome - https://fontawesome.com License - https://fontawesome.com/license (Commercial License) -->
  <path
     d="m 338.615,380.80405 h -208 V 172.80406 H 232.08 l 41.6,-41.6 H 130.615 c -22.3925,0 -41.015,18.6225 -41.015,41.6 v 207.99999 c 0,22.97751 18.6225,41.60001 41.015,41.60001 H 338.03 c 22.971,0 41.015,-18.6225 41.015,-41.60001 l -0.003,-143.065 -41.015,41.59351 v 101.47149 z m 74.62,-263.77649 -18.2845,-18.291 c -12.1875,-12.1875 -31.941,-12.1875 -44.122,0 l -25.103,25.1095 62.4065,62.4065 25.103,-25.1095 c 12.22,-12.1745 12.22,-31.928 0,-44.1155 z m -227.89,150.9365 -12.376,61.89299 c -1.0907,5.4574 3.72125,10.27002 9.178,9.178 l 61.8995,-12.376 c 3.0199,-0.6043 5.7928,-2.08845 7.969,-4.2653 l 121.42,-121.42 L 311.029,138.56726 189.57,260.03405 c -2.145,2.145 -3.64,4.94001 -4.225,7.93001 z"
     id="path2"
     style="fill:#eff1f8;fill-opacity:1;stroke-width:0.65" />
</svg>
