<?xml version="1.0" encoding="UTF-8" standalone="no"?>
<svg
   id="mdi-power-settings"
   viewBox="0 0 24 24"
   version="1.1"
   sodipodi:docname="power-settings.svg"
   inkscape:version="1.2.1 (9c6d41e410, 2022-07-14, custom)"
   xmlns:inkscape="http://www.inkscape.org/namespaces/inkscape"
   xmlns:sodipodi="http://sodipodi.sourceforge.net/DTD/sodipodi-0.dtd"
   xmlns:xlink="http://www.w3.org/1999/xlink"
   xmlns="http://www.w3.org/2000/svg"
   xmlns:svg="http://www.w3.org/2000/svg">
  <defs
     id="defs7" />
  <sodipodi:namedview
     id="namedview5"
     pagecolor="#ffffff"
     bordercolor="#000000"
     borderopacity="0.25"
     inkscape:showpageshadow="2"
     inkscape:pageopacity="0.0"
     inkscape:pagecheckerboard="0"
     inkscape:deskcolor="#d1d1d1"
     showgrid="false"
     inkscape:zoom="19.666667"
     inkscape:cx="9.9915253"
     inkscape:cy="12.966101"
     inkscape:window-width="1639"
     inkscape:window-height="476"
     inkscape:window-x="6"
     inkscape:window-y="42"
     inkscape:window-maximized="0"
     inkscape:current-layer="mdi-power-settings" />
  <path
     style="fill:#eff1f8;fill-opacity:1;stroke-width:0.829328"
     sodipodi:type="inkscape:offset"
     inkscape:radius="0"
     inkscape:original="M 11.169922 2.8769531 L 11.169922 11.169922 L 12.830078 11.169922 L 12.830078 2.8769531 L 11.169922 2.8769531 z M 8.21875 4.9003906 C 6.493749 6.0946221 5.3652344 8.0860264 5.3652344 10.341797 C 5.365234 14.005996 8.3358005 16.976562 12 16.976562 C 15.6642 16.976561 18.634766 14.005996 18.634766 10.341797 C 18.634766 8.0860264 17.506251 6.0946221 15.78125 4.9003906 L 14.580078 6.1035156 C 16.014814 6.9743093 16.976562 8.5421565 16.976562 10.341797 C 16.976562 13.089946 14.748149 15.316406 12 15.316406 C 9.2518507 15.316406 7.0234377 13.089947 7.0234375 10.341797 C 7.0234375 8.5421565 7.9856662 6.9747902 9.4121094 6.0957031 L 8.21875 4.9003906 z M 7.8535156 19.464844 L 7.8535156 21.123047 L 9.5117188 21.123047 L 9.5117188 19.464844 L 7.8535156 19.464844 z M 11.169922 19.464844 L 11.169922 21.123047 L 12.830078 21.123047 L 12.830078 19.464844 L 11.169922 19.464844 z M 14.488281 19.464844 L 14.488281 21.123047 L 16.146484 21.123047 L 16.146484 19.464844 L 14.488281 19.464844 z "
     xlink:href="#path2"
     id="path985"
     inkscape:href="#path2"
     d="m 11.169922,2.8769531 v 8.2929689 h 1.660156 V 2.8769531 Z M 8.21875,4.9003906 C 6.493749,6.0946221 5.3652344,8.0860264 5.3652344,10.341797 5.365234,14.005996 8.3358005,16.976562 12,16.976562 c 3.6642,-1e-6 6.634766,-2.970566 6.634766,-6.634765 0,-2.2557706 -1.128515,-4.2471749 -2.853516,-5.4414064 l -1.201172,1.203125 c 1.434736,0.8707937 2.396484,2.4386409 2.396484,4.2382814 0,2.748149 -2.228413,4.974609 -4.976562,4.974609 -2.7481493,0 -4.9765623,-2.226459 -4.9765625,-4.974609 0,-1.7996405 0.9622287,-3.3670068 2.3886719,-4.2460939 z M 7.8535156,19.464844 v 1.658203 h 1.6582032 v -1.658203 z m 3.3164064,0 v 1.658203 h 1.660156 v -1.658203 z m 3.318359,0 v 1.658203 h 1.658203 v -1.658203 z" />
  <path
     d="m 14.487984,21.122602 h 1.658655 V 19.463947 H 14.487984 M 15.781734,4.9009571 14.57921,6.103482 c 1.434736,0.8707937 2.396755,2.4382226 2.396755,4.237863 0,2.748149 -2.227815,4.975964 -4.975964,4.975964 -2.7481493,0 -4.9759648,-2.227814 -4.975965,-4.975964 0,-1.7996404 0.9620199,-3.3670693 2.3884631,-4.2461564 L 8.2182675,4.9009571 c -1.725001,1.1942315 -2.8528864,3.1846174 -2.8528864,5.4403879 -4e-7,3.664199 2.9704204,6.63462 6.6346199,6.63462 3.6642,-10e-7 6.634618,-2.970421 6.634618,-6.63462 0,-2.2557705 -1.127884,-4.2461564 -2.852885,-5.4403879 M 12.829329,2.8773982 h -1.658655 v 8.2932738 h 1.658655 m -1.658655,9.95193 h 1.658655 v -1.658655 h -1.658655 m -3.3173106,1.658655 h 1.658655 v -1.658655 h -1.658655 z"
     id="path2"
     style="fill:#eff1f8;fill-opacity:1;stroke-width:0.829328"
     sodipodi:nodetypes="ccccccsssccssscccccccccccccc" />
</svg>
