<?xml version="1.0" encoding="UTF-8" standalone="no"?>
<svg
   viewBox="0 0 512 512"
   version="1.1"
   id="svg4"
   sodipodi:docname="power-off.svg"
   inkscape:version="1.2.1 (9c6d41e410, 2022-07-14, custom)"
   xmlns:inkscape="http://www.inkscape.org/namespaces/inkscape"
   xmlns:sodipodi="http://sodipodi.sourceforge.net/DTD/sodipodi-0.dtd"
   xmlns="http://www.w3.org/2000/svg"
   xmlns:svg="http://www.w3.org/2000/svg">
  <defs
     id="defs8" />
  <sodipodi:namedview
     id="namedview6"
     pagecolor="#ffffff"
     bordercolor="#000000"
     borderopacity="0.25"
     inkscape:showpageshadow="2"
     inkscape:pageopacity="0.0"
     inkscape:pagecheckerboard="0"
     inkscape:deskcolor="#d1d1d1"
     showgrid="false"
     inkscape:zoom="0.4609375"
     inkscape:cx="-203.9322"
     inkscape:cy="269.01695"
     inkscape:window-width="2532"
     inkscape:window-height="858"
     inkscape:window-x="6"
     inkscape:window-y="42"
     inkscape:window-maximized="1"
     inkscape:current-layer="svg4" />
  <!--! Font Awesome Pro 6.2.0 by @fontawesome - https://fontawesome.com License - https://fontawesome.com/license (Commercial License) Copyright 2022 Fonticons, Inc. -->
  <path
     d="m 276.8,115.6 c 0,-11.505 -9.295,-20.8 -20.8,-20.8 -11.505,0 -20.8,9.295 -20.8,20.8 v 145.6 c 0,11.505 9.295,20.8 20.8,20.8 11.505,0 20.8,-9.295 20.8,-20.8 z m -93.925,57.59 c 8.84,-7.345 10.01,-20.475 2.665,-29.315 -7.345,-8.84 -20.475,-10.01 -29.315,-2.665 C 121.905,169.81 100,212.97 100,261.2 c 0,86.125 69.875,156 156,156 86.125,0 156,-69.875 156,-156 0,-48.23 -21.97,-91.39 -56.29,-119.99 -8.84,-7.345 -21.97,-6.11 -29.315,2.665 -7.345,8.775 -6.11,21.97 2.665,29.315 25.285,20.995 41.275,52.65 41.275,88.01 0,63.18 -51.22,114.4 -114.4,114.4 -63.18,0 -114.4,-51.22 -114.4,-114.4 0,-35.36 16.055,-67.015 41.275,-88.01 z"
     id="path2"
     style="fill:#eff1f8;fill-opacity:1;stroke-width:0.65" />
</svg>
