<?xml version="1.0" encoding="UTF-8" standalone="no"?>
<svg
   viewBox="0 0 512 512"
   version="1.1"
   id="svg1332"
   sodipodi:docname="rectangle-terminal.svg"
   inkscape:version="1.2.1 (9c6d41e410, 2022-07-14, custom)"
   xmlns:inkscape="http://www.inkscape.org/namespaces/inkscape"
   xmlns:sodipodi="http://sodipodi.sourceforge.net/DTD/sodipodi-0.dtd"
   xmlns="http://www.w3.org/2000/svg"
   xmlns:svg="http://www.w3.org/2000/svg">
  <defs
     id="defs1336" />
  <sodipodi:namedview
     id="namedview1334"
     pagecolor="#ffffff"
     bordercolor="#000000"
     borderopacity="0.25"
     inkscape:showpageshadow="2"
     inkscape:pageopacity="0.0"
     inkscape:pagecheckerboard="0"
     inkscape:deskcolor="#d1d1d1"
     showgrid="false"
     inkscape:zoom="0.4609375"
     inkscape:cx="256"
     inkscape:cy="256"
     inkscape:window-width="2532"
     inkscape:window-height="858"
     inkscape:window-x="6"
     inkscape:window-y="42"
     inkscape:window-maximized="1"
     inkscape:current-layer="svg1332" />
  <!--! Font Awesome Pro 6.0.0-alpha3 by @fontawesome - https://fontawesome.com License - https://fontawesome.com/license (Commercial License) -->
  <path
     d="M 380.8,110.4 H 131.2 c -22.9775,0 -41.6,18.629 -41.6,41.6 v 208 c 0,22.971 18.6225,41.6 41.6,41.6 h 249.6 c 22.9775,0 41.6,-18.629 41.6,-41.6 V 152 c 0,-22.971 -18.655,-41.6 -41.6,-41.6 z M 167.6,328.8 c -4.2146,0 -8.4175,-1.70625 -11.4985,-5.05765 -5.81945,-6.35765 -5.39305,-16.2305 0.95485,-22.0415 L 206.925,256 157.07,210.305 c -6.357,-5.785 -6.786,-15.665 -0.975,-22.035 5.811,-6.37 15.691,-6.7665 22.0415,-0.95485 l 62.4,57.2 C 243.78,247.42 245.6,251.645 245.6,256 c 0,4.355 -1.82,8.58 -5.07,11.505 l -62.4,57.2 c -2.99,2.73 -6.76,4.095 -10.53,4.095 z m 176.8,10.4 h -93.6 c -8.58,0 -15.6,-6.955 -15.6,-15.6 0,-8.645 6.9875,-15.6 15.6,-15.6 h 93.6 c 8.6125,0 15.6,6.9875 15.6,15.6 0,8.6125 -6.955,15.6 -15.6,15.6 z"
     id="path1330"
     style="stroke-width:0.65;fill:#eff1f8;fill-opacity:1" />
</svg>
