<?xml version="1.0" encoding="UTF-8" standalone="no"?>
<svg
   viewBox="0 0 512 512"
   version="1.1"
   id="svg4"
   sodipodi:docname="refresh.svg"
   inkscape:version="1.2.1 (9c6d41e410, 2022-07-14, custom)"
   xmlns:inkscape="http://www.inkscape.org/namespaces/inkscape"
   xmlns:sodipodi="http://sodipodi.sourceforge.net/DTD/sodipodi-0.dtd"
   xmlns="http://www.w3.org/2000/svg"
   xmlns:svg="http://www.w3.org/2000/svg">
  <defs
     id="defs8" />
  <sodipodi:namedview
     id="namedview6"
     pagecolor="#ffffff"
     bordercolor="#000000"
     borderopacity="0.25"
     inkscape:showpageshadow="2"
     inkscape:pageopacity="0.0"
     inkscape:pagecheckerboard="0"
     inkscape:deskcolor="#d1d1d1"
     showgrid="false"
     inkscape:zoom="0.4609375"
     inkscape:cx="258.16949"
     inkscape:cy="256"
     inkscape:window-width="2532"
     inkscape:window-height="858"
     inkscape:window-x="6"
     inkscape:window-y="42"
     inkscape:window-maximized="1"
     inkscape:current-layer="svg4" />
  <!--! Font Awesome Pro 6.2.0 by @fontawesome - https://fontawesome.com License - https://fontawesome.com/license (Commercial License) Copyright 2022 Fonticons, Inc. -->
  <path
     d="m 182.485,182.485 c 40.43,-40.43 105.755,-40.625 146.445,-0.65 l -26.78,26.715 c -4.485,4.485 -5.785,11.18 -3.38,17.03 2.405,5.85 8.125,9.62 14.43,9.62 h 77.675 c 0,0 0,0 0,0 h 5.525 c 8.645,0 15.6,-6.955 15.6,-15.6 v -83.2 c 0,-6.305 -3.77,-12.025 -9.62,-14.43 -5.85,-2.405 -12.545,-1.105 -17.03,3.38 l -27.04,27.04 c -56.94,-56.225002 -148.655,-56.030002 -205.27,0.65 -15.86,15.86 -27.3,34.515 -34.32,54.47 -3.835,10.855 1.885,22.685 12.675,26.52 10.79,3.835 22.685,-1.885 26.52,-12.675 5.005,-14.17 13.13,-27.495 24.57,-38.87 z M 100,292.4 v 4.94 0.455 77.805 c 0,6.305 3.77,12.025 9.62,14.43 5.85,2.405 12.545,1.105 17.03,-3.38 l 27.04,-27.04 c 56.94,56.225 148.655,56.03 205.27,-0.65 15.86,-15.86 27.365,-34.515 34.385,-54.405 3.835,-10.855 -1.885,-22.685 -12.675,-26.52 -10.79,-3.835 -22.685,1.885 -26.52,12.675 -5.005,14.17 -13.13,27.495 -24.57,38.87 -40.43,40.43 -105.755,40.625 -146.445,0.65 l 26.715,-26.78 c 4.485,-4.485 5.785,-11.18 3.38,-17.03 -2.405,-5.85 -8.125,-9.62 -14.43,-9.62 h -77.74 -0.455 -5.005 c -8.645,0 -15.6,6.955 -15.6,15.6 z"
     id="path2"
     style="fill:#eff1f8;fill-opacity:1;stroke-width:0.65" />
</svg>
