<?xml version="1.0" encoding="UTF-8" standalone="no"?>
<svg
   viewBox="0 0 512 512"
   version="1.1"
   id="svg4"
   sodipodi:docname="window-flip.svg"
   inkscape:version="1.2.1 (9c6d41e410, 2022-07-14, custom)"
   xmlns:inkscape="http://www.inkscape.org/namespaces/inkscape"
   xmlns:sodipodi="http://sodipodi.sourceforge.net/DTD/sodipodi-0.dtd"
   xmlns="http://www.w3.org/2000/svg"
   xmlns:svg="http://www.w3.org/2000/svg">
  <defs
     id="defs8" />
  <sodipodi:namedview
     id="namedview6"
     pagecolor="#ffffff"
     bordercolor="#000000"
     borderopacity="0.25"
     inkscape:showpageshadow="2"
     inkscape:pageopacity="0.0"
     inkscape:pagecheckerboard="0"
     inkscape:deskcolor="#d1d1d1"
     showgrid="false"
     inkscape:zoom="0.4609375"
     inkscape:cx="253.83051"
     inkscape:cy="256"
     inkscape:window-width="2532"
     inkscape:window-height="858"
     inkscape:window-x="6"
     inkscape:window-y="42"
     inkscape:window-maximized="1"
     inkscape:current-layer="svg4" />
  <!--! Font Awesome Pro 6.0.0-alpha3 by @fontawesome - https://fontawesome.com License - https://fontawesome.com/license (Commercial License) -->
  <path
     d="m 89.6,152 v 208 c 0,22.9775 18.6225,41.6 41.6,41.6 h 249.6 c 22.9775,0 41.6,-18.6225 41.6,-41.6 V 152 c 0,-22.9775 -18.6225,-41.6 -41.6,-41.6 H 131.2 c -22.9775,0 -41.6,18.6225 -41.6,41.6 z m 249.6,20.8 c 0,-11.5375 9.2625,-20.8 20.8,-20.8 11.5375,0 20.8,9.2625 20.8,20.8 0,11.5375 -9.2625,20.8 -20.8,20.8 -11.5375,0 -20.8,-9.23 -20.8,-20.8 z m -62.4,0 c 0,-11.5375 9.2625,-20.8 20.8,-20.8 11.5375,0 20.8,9.2625 20.8,20.8 0,11.5375 -9.2625,20.8 -20.8,20.8 -11.5375,0 -20.8,-9.23 -20.8,-20.8 z m -62.4,0 c 0,-11.5375 9.2625,-20.8 20.8,-20.8 11.5375,0 20.8,9.2625 20.8,20.8 0,11.5375 -9.23,20.8 -20.8,20.8 -11.57,0 -20.8,-9.23 -20.8,-20.8 z"
     id="path2"
     style="stroke-width:0.65;fill:#eff1f8;fill-opacity:1" />
</svg>
